<mxfile host="Electron" modified="2023-05-03T07:01:47.850Z" agent="Mozilla/5.0 (Macintosh; Intel Mac OS X 10_15_7) AppleWebKit/537.36 (KHTML, like Gecko) draw.io/21.2.1 Chrome/112.0.5615.87 Electron/24.1.2 Safari/537.36" etag="qjdd57BFmEYZaGexbzvu" version="21.2.1" type="device">
  <diagram name="페이지-1" id="V3P7tdzR4vOY8KF21_iD">
    <mxGraphModel dx="2811" dy="2134" grid="1" gridSize="10" guides="1" tooltips="1" connect="1" arrows="1" fold="1" page="1" pageScale="1" pageWidth="850" pageHeight="1100" math="1" shadow="0">
      <root>
        <mxCell id="0" />
        <mxCell id="1" parent="0" />
        <mxCell id="xi960QgJWF0nTJ8SSEIm-17" style="rounded=0;orthogonalLoop=1;jettySize=auto;html=1;exitX=0;exitY=1;exitDx=0;exitDy=0;entryX=1;entryY=0;entryDx=0;entryDy=0;endArrow=none;endFill=0;strokeWidth=3;fontSize=20;" parent="1" source="xi960QgJWF0nTJ8SSEIm-1" target="xi960QgJWF0nTJ8SSEIm-3" edge="1">
          <mxGeometry relative="1" as="geometry" />
        </mxCell>
        <mxCell id="xi960QgJWF0nTJ8SSEIm-18" style="edgeStyle=none;rounded=0;orthogonalLoop=1;jettySize=auto;html=1;exitX=1;exitY=1;exitDx=0;exitDy=0;entryX=0;entryY=0;entryDx=0;entryDy=0;endArrow=none;endFill=0;strokeWidth=3;fontSize=20;" parent="1" source="xi960QgJWF0nTJ8SSEIm-1" target="xi960QgJWF0nTJ8SSEIm-8" edge="1">
          <mxGeometry relative="1" as="geometry" />
        </mxCell>
        <mxCell id="xi960QgJWF0nTJ8SSEIm-1" value="fib(5)" style="ellipse;whiteSpace=wrap;html=1;aspect=fixed;fontStyle=1;strokeWidth=3;fontSize=20;" parent="1" vertex="1">
          <mxGeometry x="370" y="280" width="80" height="80" as="geometry" />
        </mxCell>
        <mxCell id="xi960QgJWF0nTJ8SSEIm-19" style="edgeStyle=none;rounded=0;orthogonalLoop=1;jettySize=auto;html=1;exitX=0;exitY=1;exitDx=0;exitDy=0;entryX=0.5;entryY=0;entryDx=0;entryDy=0;endArrow=none;endFill=0;strokeWidth=3;fontSize=20;" parent="1" source="xi960QgJWF0nTJ8SSEIm-3" target="xi960QgJWF0nTJ8SSEIm-4" edge="1">
          <mxGeometry relative="1" as="geometry" />
        </mxCell>
        <mxCell id="xi960QgJWF0nTJ8SSEIm-20" style="edgeStyle=none;rounded=0;orthogonalLoop=1;jettySize=auto;html=1;exitX=1;exitY=1;exitDx=0;exitDy=0;entryX=0.5;entryY=0;entryDx=0;entryDy=0;endArrow=none;endFill=0;strokeWidth=3;fontSize=20;" parent="1" source="xi960QgJWF0nTJ8SSEIm-3" target="xi960QgJWF0nTJ8SSEIm-5" edge="1">
          <mxGeometry relative="1" as="geometry" />
        </mxCell>
        <mxCell id="xi960QgJWF0nTJ8SSEIm-3" value="fib(3)" style="ellipse;whiteSpace=wrap;html=1;aspect=fixed;fontStyle=1;strokeWidth=3;fontSize=20;" parent="1" vertex="1">
          <mxGeometry x="120" y="440" width="80" height="80" as="geometry" />
        </mxCell>
        <mxCell id="xi960QgJWF0nTJ8SSEIm-4" value="fib(1)" style="ellipse;whiteSpace=wrap;html=1;aspect=fixed;fontStyle=1;strokeWidth=3;fontSize=20;" parent="1" vertex="1">
          <mxGeometry x="60" y="560" width="80" height="80" as="geometry" />
        </mxCell>
        <mxCell id="xi960QgJWF0nTJ8SSEIm-31" style="edgeStyle=none;rounded=0;orthogonalLoop=1;jettySize=auto;html=1;exitX=0;exitY=1;exitDx=0;exitDy=0;entryX=0.5;entryY=0;entryDx=0;entryDy=0;endArrow=none;endFill=0;strokeWidth=3;fontSize=20;" parent="1" source="xi960QgJWF0nTJ8SSEIm-5" target="xi960QgJWF0nTJ8SSEIm-7" edge="1">
          <mxGeometry relative="1" as="geometry" />
        </mxCell>
        <mxCell id="xi960QgJWF0nTJ8SSEIm-32" style="edgeStyle=none;rounded=0;orthogonalLoop=1;jettySize=auto;html=1;exitX=1;exitY=1;exitDx=0;exitDy=0;entryX=0.5;entryY=0;entryDx=0;entryDy=0;endArrow=none;endFill=0;strokeWidth=3;fontSize=20;" parent="1" source="xi960QgJWF0nTJ8SSEIm-5" target="xi960QgJWF0nTJ8SSEIm-6" edge="1">
          <mxGeometry relative="1" as="geometry" />
        </mxCell>
        <mxCell id="xi960QgJWF0nTJ8SSEIm-5" value="fib(2)" style="ellipse;whiteSpace=wrap;html=1;aspect=fixed;fontStyle=1;strokeWidth=3;fontSize=20;" parent="1" vertex="1">
          <mxGeometry x="180" y="560" width="80" height="80" as="geometry" />
        </mxCell>
        <mxCell id="xi960QgJWF0nTJ8SSEIm-6" value="fib(1)" style="ellipse;whiteSpace=wrap;html=1;aspect=fixed;fontStyle=1;strokeWidth=3;fontSize=20;" parent="1" vertex="1">
          <mxGeometry x="240" y="680" width="80" height="80" as="geometry" />
        </mxCell>
        <mxCell id="xi960QgJWF0nTJ8SSEIm-7" value="fib(0)" style="ellipse;whiteSpace=wrap;html=1;aspect=fixed;fontStyle=1;strokeWidth=3;fontSize=20;" parent="1" vertex="1">
          <mxGeometry x="120" y="680" width="80" height="80" as="geometry" />
        </mxCell>
        <mxCell id="xi960QgJWF0nTJ8SSEIm-21" style="edgeStyle=none;rounded=0;orthogonalLoop=1;jettySize=auto;html=1;exitX=0;exitY=1;exitDx=0;exitDy=0;entryX=0.5;entryY=0;entryDx=0;entryDy=0;endArrow=none;endFill=0;strokeWidth=3;fontSize=20;" parent="1" source="xi960QgJWF0nTJ8SSEIm-8" target="xi960QgJWF0nTJ8SSEIm-9" edge="1">
          <mxGeometry relative="1" as="geometry" />
        </mxCell>
        <mxCell id="xi960QgJWF0nTJ8SSEIm-22" style="edgeStyle=none;rounded=0;orthogonalLoop=1;jettySize=auto;html=1;exitX=1;exitY=1;exitDx=0;exitDy=0;entryX=0.5;entryY=0;entryDx=0;entryDy=0;endArrow=none;endFill=0;strokeWidth=3;fontSize=20;" parent="1" source="xi960QgJWF0nTJ8SSEIm-8" target="xi960QgJWF0nTJ8SSEIm-10" edge="1">
          <mxGeometry relative="1" as="geometry" />
        </mxCell>
        <mxCell id="xi960QgJWF0nTJ8SSEIm-8" value="fib(4)" style="ellipse;whiteSpace=wrap;html=1;aspect=fixed;fontStyle=1;strokeWidth=3;fontSize=20;" parent="1" vertex="1">
          <mxGeometry x="620" y="440" width="80" height="80" as="geometry" />
        </mxCell>
        <mxCell id="xi960QgJWF0nTJ8SSEIm-25" style="edgeStyle=none;rounded=0;orthogonalLoop=1;jettySize=auto;html=1;exitX=0;exitY=1;exitDx=0;exitDy=0;entryX=0.5;entryY=0;entryDx=0;entryDy=0;endArrow=none;endFill=0;strokeWidth=3;fontSize=20;" parent="1" source="xi960QgJWF0nTJ8SSEIm-9" target="xi960QgJWF0nTJ8SSEIm-12" edge="1">
          <mxGeometry relative="1" as="geometry" />
        </mxCell>
        <mxCell id="xi960QgJWF0nTJ8SSEIm-26" style="edgeStyle=none;rounded=0;orthogonalLoop=1;jettySize=auto;html=1;exitX=1;exitY=1;exitDx=0;exitDy=0;entryX=0.5;entryY=0;entryDx=0;entryDy=0;endArrow=none;endFill=0;strokeWidth=3;fontSize=20;" parent="1" source="xi960QgJWF0nTJ8SSEIm-9" target="xi960QgJWF0nTJ8SSEIm-11" edge="1">
          <mxGeometry relative="1" as="geometry" />
        </mxCell>
        <mxCell id="xi960QgJWF0nTJ8SSEIm-9" value="fib(2)" style="ellipse;whiteSpace=wrap;html=1;aspect=fixed;fontStyle=1;strokeWidth=3;fontSize=20;" parent="1" vertex="1">
          <mxGeometry x="480" y="560" width="80" height="80" as="geometry" />
        </mxCell>
        <mxCell id="xi960QgJWF0nTJ8SSEIm-27" style="edgeStyle=none;rounded=0;orthogonalLoop=1;jettySize=auto;html=1;exitX=0;exitY=1;exitDx=0;exitDy=0;entryX=0.5;entryY=0;entryDx=0;entryDy=0;endArrow=none;endFill=0;strokeWidth=3;fontSize=20;" parent="1" source="xi960QgJWF0nTJ8SSEIm-10" target="xi960QgJWF0nTJ8SSEIm-13" edge="1">
          <mxGeometry relative="1" as="geometry" />
        </mxCell>
        <mxCell id="xi960QgJWF0nTJ8SSEIm-28" style="edgeStyle=none;rounded=0;orthogonalLoop=1;jettySize=auto;html=1;exitX=1;exitY=1;exitDx=0;exitDy=0;entryX=0.5;entryY=0;entryDx=0;entryDy=0;endArrow=none;endFill=0;strokeWidth=3;fontSize=20;" parent="1" source="xi960QgJWF0nTJ8SSEIm-10" target="xi960QgJWF0nTJ8SSEIm-14" edge="1">
          <mxGeometry relative="1" as="geometry" />
        </mxCell>
        <mxCell id="xi960QgJWF0nTJ8SSEIm-10" value="fib(3)" style="ellipse;whiteSpace=wrap;html=1;aspect=fixed;fontStyle=1;strokeWidth=3;fontSize=20;" parent="1" vertex="1">
          <mxGeometry x="760" y="560" width="80" height="80" as="geometry" />
        </mxCell>
        <mxCell id="xi960QgJWF0nTJ8SSEIm-11" value="fib(1)" style="ellipse;whiteSpace=wrap;html=1;aspect=fixed;fontStyle=1;strokeWidth=3;fontSize=20;" parent="1" vertex="1">
          <mxGeometry x="540" y="680" width="80" height="80" as="geometry" />
        </mxCell>
        <mxCell id="xi960QgJWF0nTJ8SSEIm-12" value="fib(0)" style="ellipse;whiteSpace=wrap;html=1;aspect=fixed;fontStyle=1;strokeWidth=3;fontSize=20;" parent="1" vertex="1">
          <mxGeometry x="420" y="680" width="80" height="80" as="geometry" />
        </mxCell>
        <mxCell id="xi960QgJWF0nTJ8SSEIm-13" value="fib(1)" style="ellipse;whiteSpace=wrap;html=1;aspect=fixed;fontStyle=1;strokeWidth=3;fontSize=20;" parent="1" vertex="1">
          <mxGeometry x="700" y="680" width="80" height="80" as="geometry" />
        </mxCell>
        <mxCell id="xi960QgJWF0nTJ8SSEIm-29" style="edgeStyle=none;rounded=0;orthogonalLoop=1;jettySize=auto;html=1;exitX=0;exitY=1;exitDx=0;exitDy=0;entryX=0.5;entryY=0;entryDx=0;entryDy=0;endArrow=none;endFill=0;strokeWidth=3;fontSize=20;" parent="1" source="xi960QgJWF0nTJ8SSEIm-14" target="xi960QgJWF0nTJ8SSEIm-16" edge="1">
          <mxGeometry relative="1" as="geometry" />
        </mxCell>
        <mxCell id="xi960QgJWF0nTJ8SSEIm-30" style="edgeStyle=none;rounded=0;orthogonalLoop=1;jettySize=auto;html=1;exitX=1;exitY=1;exitDx=0;exitDy=0;entryX=0.5;entryY=0;entryDx=0;entryDy=0;endArrow=none;endFill=0;strokeWidth=3;fontSize=20;" parent="1" source="xi960QgJWF0nTJ8SSEIm-14" target="xi960QgJWF0nTJ8SSEIm-15" edge="1">
          <mxGeometry relative="1" as="geometry" />
        </mxCell>
        <mxCell id="xi960QgJWF0nTJ8SSEIm-14" value="fib(2)" style="ellipse;whiteSpace=wrap;html=1;aspect=fixed;fontStyle=1;strokeWidth=3;fontSize=20;" parent="1" vertex="1">
          <mxGeometry x="820" y="680" width="80" height="80" as="geometry" />
        </mxCell>
        <mxCell id="xi960QgJWF0nTJ8SSEIm-15" value="fib(1)" style="ellipse;whiteSpace=wrap;html=1;aspect=fixed;fontStyle=1;strokeWidth=3;fontSize=20;" parent="1" vertex="1">
          <mxGeometry x="880" y="800" width="80" height="80" as="geometry" />
        </mxCell>
        <mxCell id="xi960QgJWF0nTJ8SSEIm-16" value="fib(0)" style="ellipse;whiteSpace=wrap;html=1;aspect=fixed;fontStyle=1;strokeWidth=3;fontSize=20;" parent="1" vertex="1">
          <mxGeometry x="760" y="800" width="80" height="80" as="geometry" />
        </mxCell>
        <mxCell id="cX_sl3keeCvT7ouclhXh-1" value="38" style="rounded=0;whiteSpace=wrap;html=1;fontStyle=1;fontSize=16;strokeWidth=2;" parent="1" vertex="1">
          <mxGeometry x="1240" y="240" width="30" height="40" as="geometry" />
        </mxCell>
        <mxCell id="cX_sl3keeCvT7ouclhXh-2" value="27" style="rounded=0;whiteSpace=wrap;html=1;fontStyle=1;fontSize=16;strokeWidth=2;" parent="1" vertex="1">
          <mxGeometry x="1270" y="240" width="30" height="40" as="geometry" />
        </mxCell>
        <mxCell id="cX_sl3keeCvT7ouclhXh-30" style="rounded=0;orthogonalLoop=1;jettySize=auto;html=1;exitX=0.5;exitY=1;exitDx=0;exitDy=0;entryX=0;entryY=0;entryDx=0;entryDy=0;fontSize=16;strokeWidth=2;" parent="1" source="cX_sl3keeCvT7ouclhXh-3" target="cX_sl3keeCvT7ouclhXh-11" edge="1">
          <mxGeometry relative="1" as="geometry" />
        </mxCell>
        <mxCell id="cX_sl3keeCvT7ouclhXh-3" value="43" style="rounded=0;whiteSpace=wrap;html=1;fontStyle=1;fontSize=16;strokeWidth=2;" parent="1" vertex="1">
          <mxGeometry x="1300" y="240" width="30" height="40" as="geometry" />
        </mxCell>
        <mxCell id="cX_sl3keeCvT7ouclhXh-4" value="3" style="rounded=0;whiteSpace=wrap;html=1;fontStyle=1;fontSize=16;strokeWidth=2;" parent="1" vertex="1">
          <mxGeometry x="1330" y="240" width="30" height="40" as="geometry" />
        </mxCell>
        <mxCell id="cX_sl3keeCvT7ouclhXh-31" style="edgeStyle=none;rounded=0;orthogonalLoop=1;jettySize=auto;html=1;exitX=0;exitY=1;exitDx=0;exitDy=0;entryX=0.5;entryY=0;entryDx=0;entryDy=0;strokeWidth=2;fontSize=16;" parent="1" source="cX_sl3keeCvT7ouclhXh-5" target="cX_sl3keeCvT7ouclhXh-14" edge="1">
          <mxGeometry relative="1" as="geometry" />
        </mxCell>
        <mxCell id="cX_sl3keeCvT7ouclhXh-5" value="9" style="rounded=0;whiteSpace=wrap;html=1;fontStyle=1;fontSize=16;strokeWidth=2;" parent="1" vertex="1">
          <mxGeometry x="1360" y="240" width="30" height="40" as="geometry" />
        </mxCell>
        <mxCell id="cX_sl3keeCvT7ouclhXh-6" value="82" style="rounded=0;whiteSpace=wrap;html=1;fontStyle=1;fontSize=16;strokeWidth=2;" parent="1" vertex="1">
          <mxGeometry x="1390" y="240" width="30" height="40" as="geometry" />
        </mxCell>
        <mxCell id="cX_sl3keeCvT7ouclhXh-7" value="10" style="rounded=0;whiteSpace=wrap;html=1;fontStyle=1;fontSize=16;strokeWidth=2;" parent="1" vertex="1">
          <mxGeometry x="1420" y="240" width="30" height="40" as="geometry" />
        </mxCell>
        <mxCell id="cX_sl3keeCvT7ouclhXh-9" value="38" style="rounded=0;whiteSpace=wrap;html=1;fontStyle=1;fontSize=16;strokeWidth=2;" parent="1" vertex="1">
          <mxGeometry x="1190" y="320" width="30" height="40" as="geometry" />
        </mxCell>
        <mxCell id="cX_sl3keeCvT7ouclhXh-32" style="edgeStyle=none;rounded=0;orthogonalLoop=1;jettySize=auto;html=1;exitX=0.25;exitY=1;exitDx=0;exitDy=0;entryX=0;entryY=0;entryDx=0;entryDy=0;strokeWidth=2;fontSize=16;" parent="1" source="cX_sl3keeCvT7ouclhXh-10" target="cX_sl3keeCvT7ouclhXh-17" edge="1">
          <mxGeometry relative="1" as="geometry" />
        </mxCell>
        <mxCell id="cX_sl3keeCvT7ouclhXh-10" value="27" style="rounded=0;whiteSpace=wrap;html=1;fontStyle=1;fontSize=16;strokeWidth=2;" parent="1" vertex="1">
          <mxGeometry x="1220" y="320" width="30" height="40" as="geometry" />
        </mxCell>
        <mxCell id="cX_sl3keeCvT7ouclhXh-11" value="43" style="rounded=0;whiteSpace=wrap;html=1;fontStyle=1;fontSize=16;strokeWidth=2;" parent="1" vertex="1">
          <mxGeometry x="1250" y="320" width="30" height="40" as="geometry" />
        </mxCell>
        <mxCell id="cX_sl3keeCvT7ouclhXh-33" style="edgeStyle=none;rounded=0;orthogonalLoop=1;jettySize=auto;html=1;exitX=0;exitY=1;exitDx=0;exitDy=0;entryX=0;entryY=0;entryDx=0;entryDy=0;strokeWidth=2;fontSize=16;" parent="1" source="cX_sl3keeCvT7ouclhXh-12" target="cX_sl3keeCvT7ouclhXh-19" edge="1">
          <mxGeometry relative="1" as="geometry" />
        </mxCell>
        <mxCell id="cX_sl3keeCvT7ouclhXh-12" value="3" style="rounded=0;whiteSpace=wrap;html=1;fontStyle=1;fontSize=16;strokeWidth=2;" parent="1" vertex="1">
          <mxGeometry x="1280" y="320" width="30" height="40" as="geometry" />
        </mxCell>
        <mxCell id="cX_sl3keeCvT7ouclhXh-13" value="9" style="rounded=0;whiteSpace=wrap;html=1;fontStyle=1;fontSize=16;strokeWidth=2;" parent="1" vertex="1">
          <mxGeometry x="1390" y="320" width="30" height="40" as="geometry" />
        </mxCell>
        <mxCell id="cX_sl3keeCvT7ouclhXh-34" style="edgeStyle=none;rounded=0;orthogonalLoop=1;jettySize=auto;html=1;exitX=0;exitY=1;exitDx=0;exitDy=0;entryX=0;entryY=0;entryDx=0;entryDy=0;strokeWidth=2;fontSize=16;" parent="1" source="cX_sl3keeCvT7ouclhXh-14" target="cX_sl3keeCvT7ouclhXh-21" edge="1">
          <mxGeometry relative="1" as="geometry" />
        </mxCell>
        <mxCell id="cX_sl3keeCvT7ouclhXh-14" value="82" style="rounded=0;whiteSpace=wrap;html=1;fontStyle=1;fontSize=16;strokeWidth=2;" parent="1" vertex="1">
          <mxGeometry x="1420" y="320" width="30" height="40" as="geometry" />
        </mxCell>
        <mxCell id="cX_sl3keeCvT7ouclhXh-35" style="edgeStyle=none;rounded=0;orthogonalLoop=1;jettySize=auto;html=1;exitX=0.5;exitY=1;exitDx=0;exitDy=0;entryX=0.5;entryY=0;entryDx=0;entryDy=0;strokeWidth=2;fontSize=16;" parent="1" source="cX_sl3keeCvT7ouclhXh-15" target="cX_sl3keeCvT7ouclhXh-22" edge="1">
          <mxGeometry relative="1" as="geometry" />
        </mxCell>
        <mxCell id="cX_sl3keeCvT7ouclhXh-15" value="10" style="rounded=0;whiteSpace=wrap;html=1;fontStyle=1;fontSize=16;strokeWidth=2;" parent="1" vertex="1">
          <mxGeometry x="1450" y="320" width="30" height="40" as="geometry" />
        </mxCell>
        <mxCell id="cX_sl3keeCvT7ouclhXh-36" style="edgeStyle=none;rounded=0;orthogonalLoop=1;jettySize=auto;html=1;exitX=0.5;exitY=1;exitDx=0;exitDy=0;entryX=0.5;entryY=0;entryDx=0;entryDy=0;strokeWidth=2;fontSize=16;" parent="1" source="cX_sl3keeCvT7ouclhXh-16" target="cX_sl3keeCvT7ouclhXh-23" edge="1">
          <mxGeometry relative="1" as="geometry" />
        </mxCell>
        <mxCell id="cX_sl3keeCvT7ouclhXh-16" value="38" style="rounded=0;whiteSpace=wrap;html=1;fontStyle=1;fontSize=16;strokeWidth=2;" parent="1" vertex="1">
          <mxGeometry x="1160" y="400" width="30" height="40" as="geometry" />
        </mxCell>
        <mxCell id="cX_sl3keeCvT7ouclhXh-37" style="edgeStyle=none;rounded=0;orthogonalLoop=1;jettySize=auto;html=1;exitX=0.5;exitY=1;exitDx=0;exitDy=0;entryX=0.5;entryY=0;entryDx=0;entryDy=0;strokeWidth=2;fontSize=16;" parent="1" source="cX_sl3keeCvT7ouclhXh-17" target="cX_sl3keeCvT7ouclhXh-24" edge="1">
          <mxGeometry relative="1" as="geometry" />
        </mxCell>
        <mxCell id="cX_sl3keeCvT7ouclhXh-17" value="27" style="rounded=0;whiteSpace=wrap;html=1;fontStyle=1;fontSize=16;strokeWidth=2;" parent="1" vertex="1">
          <mxGeometry x="1190" y="400" width="30" height="40" as="geometry" />
        </mxCell>
        <mxCell id="cX_sl3keeCvT7ouclhXh-38" style="edgeStyle=none;rounded=0;orthogonalLoop=1;jettySize=auto;html=1;exitX=0.5;exitY=1;exitDx=0;exitDy=0;entryX=0.5;entryY=0;entryDx=0;entryDy=0;strokeWidth=2;fontSize=16;" parent="1" source="cX_sl3keeCvT7ouclhXh-18" target="cX_sl3keeCvT7ouclhXh-25" edge="1">
          <mxGeometry relative="1" as="geometry" />
        </mxCell>
        <mxCell id="cX_sl3keeCvT7ouclhXh-18" value="43" style="rounded=0;whiteSpace=wrap;html=1;fontStyle=1;fontSize=16;strokeWidth=2;" parent="1" vertex="1">
          <mxGeometry x="1255" y="400" width="30" height="40" as="geometry" />
        </mxCell>
        <mxCell id="cX_sl3keeCvT7ouclhXh-39" style="edgeStyle=none;rounded=0;orthogonalLoop=1;jettySize=auto;html=1;exitX=0.5;exitY=1;exitDx=0;exitDy=0;entryX=0.5;entryY=0;entryDx=0;entryDy=0;strokeWidth=2;fontSize=16;" parent="1" source="cX_sl3keeCvT7ouclhXh-19" target="cX_sl3keeCvT7ouclhXh-26" edge="1">
          <mxGeometry relative="1" as="geometry" />
        </mxCell>
        <mxCell id="cX_sl3keeCvT7ouclhXh-19" value="3" style="rounded=0;whiteSpace=wrap;html=1;fontStyle=1;fontSize=16;strokeWidth=2;" parent="1" vertex="1">
          <mxGeometry x="1285" y="400" width="30" height="40" as="geometry" />
        </mxCell>
        <mxCell id="cX_sl3keeCvT7ouclhXh-40" style="edgeStyle=none;rounded=0;orthogonalLoop=1;jettySize=auto;html=1;exitX=0.5;exitY=1;exitDx=0;exitDy=0;entryX=0.5;entryY=0;entryDx=0;entryDy=0;strokeWidth=2;fontSize=16;" parent="1" source="cX_sl3keeCvT7ouclhXh-20" target="cX_sl3keeCvT7ouclhXh-27" edge="1">
          <mxGeometry relative="1" as="geometry" />
        </mxCell>
        <mxCell id="cX_sl3keeCvT7ouclhXh-20" value="9" style="rounded=0;whiteSpace=wrap;html=1;fontStyle=1;fontSize=16;strokeWidth=2;" parent="1" vertex="1">
          <mxGeometry x="1375" y="400" width="30" height="40" as="geometry" />
        </mxCell>
        <mxCell id="cX_sl3keeCvT7ouclhXh-41" style="edgeStyle=none;rounded=0;orthogonalLoop=1;jettySize=auto;html=1;exitX=0.5;exitY=1;exitDx=0;exitDy=0;entryX=0.5;entryY=0;entryDx=0;entryDy=0;strokeWidth=2;fontSize=16;" parent="1" source="cX_sl3keeCvT7ouclhXh-21" target="cX_sl3keeCvT7ouclhXh-28" edge="1">
          <mxGeometry relative="1" as="geometry" />
        </mxCell>
        <mxCell id="cX_sl3keeCvT7ouclhXh-21" value="82" style="rounded=0;whiteSpace=wrap;html=1;fontStyle=1;fontSize=16;strokeWidth=2;" parent="1" vertex="1">
          <mxGeometry x="1405" y="400" width="30" height="40" as="geometry" />
        </mxCell>
        <mxCell id="cX_sl3keeCvT7ouclhXh-42" style="edgeStyle=none;rounded=0;orthogonalLoop=1;jettySize=auto;html=1;exitX=0.5;exitY=1;exitDx=0;exitDy=0;entryX=0.5;entryY=0;entryDx=0;entryDy=0;strokeWidth=2;fontSize=16;" parent="1" source="cX_sl3keeCvT7ouclhXh-22" target="cX_sl3keeCvT7ouclhXh-29" edge="1">
          <mxGeometry relative="1" as="geometry" />
        </mxCell>
        <mxCell id="cX_sl3keeCvT7ouclhXh-22" value="10" style="rounded=0;whiteSpace=wrap;html=1;fontStyle=1;fontSize=16;strokeWidth=2;" parent="1" vertex="1">
          <mxGeometry x="1460" y="400" width="30" height="40" as="geometry" />
        </mxCell>
        <mxCell id="cX_sl3keeCvT7ouclhXh-51" style="edgeStyle=none;rounded=0;orthogonalLoop=1;jettySize=auto;html=1;exitX=0.5;exitY=1;exitDx=0;exitDy=0;entryX=1;entryY=0;entryDx=0;entryDy=0;strokeWidth=2;fontSize=16;" parent="1" source="cX_sl3keeCvT7ouclhXh-23" target="cX_sl3keeCvT7ouclhXh-45" edge="1">
          <mxGeometry relative="1" as="geometry" />
        </mxCell>
        <mxCell id="cX_sl3keeCvT7ouclhXh-23" value="38" style="rounded=0;whiteSpace=wrap;html=1;fontStyle=1;fontSize=16;strokeWidth=2;" parent="1" vertex="1">
          <mxGeometry x="1150" y="480" width="30" height="40" as="geometry" />
        </mxCell>
        <mxCell id="cX_sl3keeCvT7ouclhXh-50" style="edgeStyle=none;rounded=0;orthogonalLoop=1;jettySize=auto;html=1;exitX=0.5;exitY=1;exitDx=0;exitDy=0;entryX=0;entryY=0;entryDx=0;entryDy=0;strokeWidth=2;fontSize=16;" parent="1" source="cX_sl3keeCvT7ouclhXh-24" target="cX_sl3keeCvT7ouclhXh-46" edge="1">
          <mxGeometry relative="1" as="geometry" />
        </mxCell>
        <mxCell id="cX_sl3keeCvT7ouclhXh-24" value="27" style="rounded=0;whiteSpace=wrap;html=1;fontStyle=1;fontSize=16;strokeWidth=2;" parent="1" vertex="1">
          <mxGeometry x="1190" y="480" width="30" height="40" as="geometry" />
        </mxCell>
        <mxCell id="cX_sl3keeCvT7ouclhXh-54" style="edgeStyle=none;rounded=0;orthogonalLoop=1;jettySize=auto;html=1;exitX=0.5;exitY=1;exitDx=0;exitDy=0;entryX=0;entryY=0;entryDx=0;entryDy=0;strokeWidth=2;fontSize=16;" parent="1" source="cX_sl3keeCvT7ouclhXh-25" target="cX_sl3keeCvT7ouclhXh-48" edge="1">
          <mxGeometry relative="1" as="geometry" />
        </mxCell>
        <mxCell id="cX_sl3keeCvT7ouclhXh-25" value="43" style="rounded=0;whiteSpace=wrap;html=1;fontStyle=1;fontSize=16;strokeWidth=2;" parent="1" vertex="1">
          <mxGeometry x="1240" y="480" width="30" height="40" as="geometry" />
        </mxCell>
        <mxCell id="cX_sl3keeCvT7ouclhXh-55" style="edgeStyle=none;rounded=0;orthogonalLoop=1;jettySize=auto;html=1;exitX=0.5;exitY=1;exitDx=0;exitDy=0;entryX=0;entryY=0;entryDx=0;entryDy=0;strokeWidth=2;fontSize=16;" parent="1" source="cX_sl3keeCvT7ouclhXh-26" target="cX_sl3keeCvT7ouclhXh-48" edge="1">
          <mxGeometry relative="1" as="geometry" />
        </mxCell>
        <mxCell id="cX_sl3keeCvT7ouclhXh-26" value="3" style="rounded=0;whiteSpace=wrap;html=1;fontStyle=1;fontSize=16;strokeWidth=2;" parent="1" vertex="1">
          <mxGeometry x="1285" y="480" width="30" height="40" as="geometry" />
        </mxCell>
        <mxCell id="cX_sl3keeCvT7ouclhXh-58" style="edgeStyle=none;rounded=0;orthogonalLoop=1;jettySize=auto;html=1;exitX=0.5;exitY=1;exitDx=0;exitDy=0;entryX=1;entryY=0;entryDx=0;entryDy=0;strokeWidth=2;fontSize=16;" parent="1" source="cX_sl3keeCvT7ouclhXh-27" target="cX_sl3keeCvT7ouclhXh-56" edge="1">
          <mxGeometry relative="1" as="geometry" />
        </mxCell>
        <mxCell id="cX_sl3keeCvT7ouclhXh-27" value="9" style="rounded=0;whiteSpace=wrap;html=1;fontStyle=1;fontSize=16;strokeWidth=2;" parent="1" vertex="1">
          <mxGeometry x="1360" y="480" width="30" height="40" as="geometry" />
        </mxCell>
        <mxCell id="cX_sl3keeCvT7ouclhXh-59" style="edgeStyle=none;rounded=0;orthogonalLoop=1;jettySize=auto;html=1;exitX=0.5;exitY=1;exitDx=0;exitDy=0;strokeWidth=2;fontSize=16;" parent="1" source="cX_sl3keeCvT7ouclhXh-28" edge="1">
          <mxGeometry relative="1" as="geometry">
            <mxPoint x="1404.2857142857142" y="560.8571428571429" as="targetPoint" />
          </mxGeometry>
        </mxCell>
        <mxCell id="cX_sl3keeCvT7ouclhXh-28" value="82" style="rounded=0;whiteSpace=wrap;html=1;fontStyle=1;fontSize=16;strokeWidth=2;" parent="1" vertex="1">
          <mxGeometry x="1405" y="480" width="30" height="40" as="geometry" />
        </mxCell>
        <mxCell id="cX_sl3keeCvT7ouclhXh-61" style="edgeStyle=none;rounded=0;orthogonalLoop=1;jettySize=auto;html=1;exitX=0.5;exitY=1;exitDx=0;exitDy=0;entryX=0.5;entryY=0;entryDx=0;entryDy=0;strokeWidth=2;fontSize=16;" parent="1" source="cX_sl3keeCvT7ouclhXh-29" target="cX_sl3keeCvT7ouclhXh-60" edge="1">
          <mxGeometry relative="1" as="geometry" />
        </mxCell>
        <mxCell id="cX_sl3keeCvT7ouclhXh-29" value="10" style="rounded=0;whiteSpace=wrap;html=1;fontStyle=1;fontSize=16;strokeWidth=2;" parent="1" vertex="1">
          <mxGeometry x="1460" y="480" width="30" height="40" as="geometry" />
        </mxCell>
        <mxCell id="cX_sl3keeCvT7ouclhXh-45" value="27" style="rounded=0;whiteSpace=wrap;html=1;fontStyle=1;fontSize=16;strokeWidth=2;" parent="1" vertex="1">
          <mxGeometry x="1160" y="560" width="30" height="40" as="geometry" />
        </mxCell>
        <mxCell id="cX_sl3keeCvT7ouclhXh-70" style="edgeStyle=none;rounded=0;orthogonalLoop=1;jettySize=auto;html=1;exitX=0;exitY=1;exitDx=0;exitDy=0;entryX=0;entryY=0;entryDx=0;entryDy=0;strokeWidth=2;fontSize=16;" parent="1" source="cX_sl3keeCvT7ouclhXh-46" target="cX_sl3keeCvT7ouclhXh-68" edge="1">
          <mxGeometry relative="1" as="geometry" />
        </mxCell>
        <mxCell id="cX_sl3keeCvT7ouclhXh-46" value="38" style="rounded=0;whiteSpace=wrap;html=1;fontStyle=1;fontSize=16;strokeWidth=2;" parent="1" vertex="1">
          <mxGeometry x="1190" y="560" width="30" height="40" as="geometry" />
        </mxCell>
        <mxCell id="cX_sl3keeCvT7ouclhXh-47" value="3" style="rounded=0;whiteSpace=wrap;html=1;fontStyle=1;fontSize=16;strokeWidth=2;" parent="1" vertex="1">
          <mxGeometry x="1255" y="560" width="35" height="40" as="geometry" />
        </mxCell>
        <mxCell id="cX_sl3keeCvT7ouclhXh-71" style="edgeStyle=none;rounded=0;orthogonalLoop=1;jettySize=auto;html=1;exitX=0;exitY=1;exitDx=0;exitDy=0;entryX=1;entryY=0;entryDx=0;entryDy=0;strokeWidth=2;fontSize=16;" parent="1" source="cX_sl3keeCvT7ouclhXh-48" target="cX_sl3keeCvT7ouclhXh-67" edge="1">
          <mxGeometry relative="1" as="geometry" />
        </mxCell>
        <mxCell id="cX_sl3keeCvT7ouclhXh-48" value="43" style="rounded=0;whiteSpace=wrap;html=1;fontStyle=1;fontSize=16;strokeWidth=2;" parent="1" vertex="1">
          <mxGeometry x="1285" y="560" width="30" height="40" as="geometry" />
        </mxCell>
        <mxCell id="cX_sl3keeCvT7ouclhXh-56" value="9" style="rounded=0;whiteSpace=wrap;html=1;fontStyle=1;fontSize=16;strokeWidth=2;" parent="1" vertex="1">
          <mxGeometry x="1375" y="560" width="30" height="40" as="geometry" />
        </mxCell>
        <mxCell id="cX_sl3keeCvT7ouclhXh-76" style="edgeStyle=none;rounded=0;orthogonalLoop=1;jettySize=auto;html=1;exitX=0;exitY=1;exitDx=0;exitDy=0;entryX=0.5;entryY=0;entryDx=0;entryDy=0;strokeWidth=2;fontSize=16;" parent="1" source="cX_sl3keeCvT7ouclhXh-57" target="cX_sl3keeCvT7ouclhXh-73" edge="1">
          <mxGeometry relative="1" as="geometry" />
        </mxCell>
        <mxCell id="cX_sl3keeCvT7ouclhXh-57" value="82" style="rounded=0;whiteSpace=wrap;html=1;fontStyle=1;fontSize=16;strokeWidth=2;" parent="1" vertex="1">
          <mxGeometry x="1405" y="560" width="30" height="40" as="geometry" />
        </mxCell>
        <mxCell id="cX_sl3keeCvT7ouclhXh-75" style="edgeStyle=none;rounded=0;orthogonalLoop=1;jettySize=auto;html=1;exitX=0.5;exitY=1;exitDx=0;exitDy=0;entryX=0.5;entryY=0;entryDx=0;entryDy=0;strokeWidth=2;fontSize=16;" parent="1" source="cX_sl3keeCvT7ouclhXh-60" target="cX_sl3keeCvT7ouclhXh-73" edge="1">
          <mxGeometry relative="1" as="geometry" />
        </mxCell>
        <mxCell id="cX_sl3keeCvT7ouclhXh-60" value="10" style="rounded=0;whiteSpace=wrap;html=1;fontStyle=1;fontSize=16;strokeWidth=2;" parent="1" vertex="1">
          <mxGeometry x="1460" y="560" width="30" height="40" as="geometry" />
        </mxCell>
        <mxCell id="cX_sl3keeCvT7ouclhXh-66" value="3" style="rounded=0;whiteSpace=wrap;html=1;fontStyle=1;fontSize=16;strokeWidth=2;" parent="1" vertex="1">
          <mxGeometry x="1190" y="640" width="30" height="40" as="geometry" />
        </mxCell>
        <mxCell id="cX_sl3keeCvT7ouclhXh-67" value="27" style="rounded=0;whiteSpace=wrap;html=1;fontStyle=1;fontSize=16;strokeWidth=2;" parent="1" vertex="1">
          <mxGeometry x="1220" y="640" width="30" height="40" as="geometry" />
        </mxCell>
        <mxCell id="cX_sl3keeCvT7ouclhXh-84" style="edgeStyle=none;rounded=0;orthogonalLoop=1;jettySize=auto;html=1;exitX=0;exitY=1;exitDx=0;exitDy=0;entryX=0.5;entryY=0;entryDx=0;entryDy=0;strokeWidth=2;fontSize=16;" parent="1" source="cX_sl3keeCvT7ouclhXh-68" target="cX_sl3keeCvT7ouclhXh-80" edge="1">
          <mxGeometry relative="1" as="geometry" />
        </mxCell>
        <mxCell id="cX_sl3keeCvT7ouclhXh-68" value="38" style="rounded=0;whiteSpace=wrap;html=1;fontStyle=1;fontSize=16;strokeWidth=2;" parent="1" vertex="1">
          <mxGeometry x="1250" y="640" width="30" height="40" as="geometry" />
        </mxCell>
        <mxCell id="cX_sl3keeCvT7ouclhXh-69" value="43" style="rounded=0;whiteSpace=wrap;html=1;fontStyle=1;fontSize=16;strokeWidth=2;" parent="1" vertex="1">
          <mxGeometry x="1280" y="640" width="30" height="40" as="geometry" />
        </mxCell>
        <mxCell id="cX_sl3keeCvT7ouclhXh-72" value="9" style="rounded=0;whiteSpace=wrap;html=1;fontStyle=1;fontSize=16;strokeWidth=2;" parent="1" vertex="1">
          <mxGeometry x="1390" y="640" width="30" height="40" as="geometry" />
        </mxCell>
        <mxCell id="cX_sl3keeCvT7ouclhXh-85" style="edgeStyle=none;rounded=0;orthogonalLoop=1;jettySize=auto;html=1;exitX=0.5;exitY=1;exitDx=0;exitDy=0;entryX=0.5;entryY=0;entryDx=0;entryDy=0;strokeWidth=2;fontSize=16;" parent="1" source="cX_sl3keeCvT7ouclhXh-73" target="cX_sl3keeCvT7ouclhXh-80" edge="1">
          <mxGeometry relative="1" as="geometry" />
        </mxCell>
        <mxCell id="cX_sl3keeCvT7ouclhXh-73" value="10" style="rounded=0;whiteSpace=wrap;html=1;fontStyle=1;fontSize=16;strokeWidth=2;" parent="1" vertex="1">
          <mxGeometry x="1420" y="640" width="30" height="40" as="geometry" />
        </mxCell>
        <mxCell id="cX_sl3keeCvT7ouclhXh-74" value="82" style="rounded=0;whiteSpace=wrap;html=1;fontStyle=1;fontSize=16;strokeWidth=2;" parent="1" vertex="1">
          <mxGeometry x="1450" y="640" width="30" height="40" as="geometry" />
        </mxCell>
        <mxCell id="cX_sl3keeCvT7ouclhXh-77" value="38" style="rounded=0;whiteSpace=wrap;html=1;fontStyle=1;fontSize=16;strokeWidth=2;" parent="1" vertex="1">
          <mxGeometry x="1240" y="720" width="30" height="40" as="geometry" />
        </mxCell>
        <mxCell id="cX_sl3keeCvT7ouclhXh-78" value="27" style="rounded=0;whiteSpace=wrap;html=1;fontStyle=1;fontSize=16;strokeWidth=2;" parent="1" vertex="1">
          <mxGeometry x="1270" y="720" width="30" height="40" as="geometry" />
        </mxCell>
        <mxCell id="cX_sl3keeCvT7ouclhXh-79" value="43" style="rounded=0;whiteSpace=wrap;html=1;fontStyle=1;fontSize=16;strokeWidth=2;" parent="1" vertex="1">
          <mxGeometry x="1300" y="720" width="30" height="40" as="geometry" />
        </mxCell>
        <mxCell id="cX_sl3keeCvT7ouclhXh-80" value="3" style="rounded=0;whiteSpace=wrap;html=1;fontStyle=1;fontSize=16;strokeWidth=2;" parent="1" vertex="1">
          <mxGeometry x="1330" y="720" width="30" height="40" as="geometry" />
        </mxCell>
        <mxCell id="cX_sl3keeCvT7ouclhXh-81" value="9" style="rounded=0;whiteSpace=wrap;html=1;fontStyle=1;fontSize=16;strokeWidth=2;" parent="1" vertex="1">
          <mxGeometry x="1360" y="720" width="30" height="40" as="geometry" />
        </mxCell>
        <mxCell id="cX_sl3keeCvT7ouclhXh-82" value="82" style="rounded=0;whiteSpace=wrap;html=1;fontStyle=1;fontSize=16;strokeWidth=2;" parent="1" vertex="1">
          <mxGeometry x="1390" y="720" width="30" height="40" as="geometry" />
        </mxCell>
        <mxCell id="cX_sl3keeCvT7ouclhXh-83" value="10" style="rounded=0;whiteSpace=wrap;html=1;fontStyle=1;fontSize=16;strokeWidth=2;" parent="1" vertex="1">
          <mxGeometry x="1420" y="720" width="30" height="40" as="geometry" />
        </mxCell>
        <mxCell id="IIIALtbJ6gJXUHirrjL4-1" value="-" style="rounded=0;whiteSpace=wrap;html=1;fontStyle=1;fontSize=20;strokeWidth=3;" parent="1" vertex="1">
          <mxGeometry x="80" y="1120" width="80" height="40" as="geometry" />
        </mxCell>
        <mxCell id="IIIALtbJ6gJXUHirrjL4-2" value="-" style="rounded=0;whiteSpace=wrap;html=1;fontStyle=1;fontSize=20;strokeWidth=3;" parent="1" vertex="1">
          <mxGeometry x="160" y="1120" width="80" height="40" as="geometry" />
        </mxCell>
        <mxCell id="IIIALtbJ6gJXUHirrjL4-5" value="A" style="rounded=0;whiteSpace=wrap;html=1;fontStyle=1;fontSize=20;strokeWidth=3;" parent="1" vertex="1">
          <mxGeometry x="240" y="1120" width="80" height="40" as="geometry" />
        </mxCell>
        <mxCell id="IIIALtbJ6gJXUHirrjL4-6" value="T" style="rounded=0;whiteSpace=wrap;html=1;fontStyle=1;fontSize=20;strokeWidth=3;" parent="1" vertex="1">
          <mxGeometry x="320" y="1120" width="80" height="40" as="geometry" />
        </mxCell>
        <mxCell id="IIIALtbJ6gJXUHirrjL4-7" value="C" style="rounded=0;whiteSpace=wrap;html=1;fontStyle=1;fontSize=20;strokeWidth=3;" parent="1" vertex="1">
          <mxGeometry x="400" y="1120" width="80" height="40" as="geometry" />
        </mxCell>
        <mxCell id="IIIALtbJ6gJXUHirrjL4-8" value="G" style="rounded=0;whiteSpace=wrap;html=1;fontStyle=1;fontSize=20;strokeWidth=3;" parent="1" vertex="1">
          <mxGeometry x="480" y="1120" width="80" height="40" as="geometry" />
        </mxCell>
        <mxCell id="IIIALtbJ6gJXUHirrjL4-9" value="A" style="rounded=0;whiteSpace=wrap;html=1;fontStyle=1;fontSize=20;strokeWidth=3;" parent="1" vertex="1">
          <mxGeometry x="560" y="1120" width="80" height="40" as="geometry" />
        </mxCell>
        <mxCell id="IIIALtbJ6gJXUHirrjL4-10" value="C" style="rounded=0;whiteSpace=wrap;html=1;fontStyle=1;fontSize=20;strokeWidth=3;" parent="1" vertex="1">
          <mxGeometry x="640" y="1120" width="80" height="40" as="geometry" />
        </mxCell>
        <mxCell id="IIIALtbJ6gJXUHirrjL4-11" value="-" style="rounded=0;whiteSpace=wrap;html=1;fontStyle=1;fontSize=20;strokeWidth=3;" parent="1" vertex="1">
          <mxGeometry x="80" y="1160" width="80" height="40" as="geometry" />
        </mxCell>
        <mxCell id="IIIALtbJ6gJXUHirrjL4-12" value="C" style="rounded=0;whiteSpace=wrap;html=1;fontStyle=1;fontSize=20;strokeWidth=3;" parent="1" vertex="1">
          <mxGeometry x="80" y="1200" width="80" height="40" as="geometry" />
        </mxCell>
        <mxCell id="IIIALtbJ6gJXUHirrjL4-13" value="A" style="rounded=0;whiteSpace=wrap;html=1;fontStyle=1;fontSize=20;strokeWidth=3;" parent="1" vertex="1">
          <mxGeometry x="80" y="1240" width="80" height="40" as="geometry" />
        </mxCell>
        <mxCell id="IIIALtbJ6gJXUHirrjL4-14" value="T" style="rounded=0;whiteSpace=wrap;html=1;fontStyle=1;fontSize=20;strokeWidth=3;" parent="1" vertex="1">
          <mxGeometry x="80" y="1280" width="80" height="40" as="geometry" />
        </mxCell>
        <mxCell id="IIIALtbJ6gJXUHirrjL4-15" value="A" style="rounded=0;whiteSpace=wrap;html=1;fontStyle=1;fontSize=20;strokeWidth=3;" parent="1" vertex="1">
          <mxGeometry x="80" y="1320" width="80" height="40" as="geometry" />
        </mxCell>
        <mxCell id="IIIALtbJ6gJXUHirrjL4-16" value="C" style="rounded=0;whiteSpace=wrap;html=1;fontStyle=1;fontSize=20;strokeWidth=3;" parent="1" vertex="1">
          <mxGeometry x="80" y="1360" width="80" height="40" as="geometry" />
        </mxCell>
        <mxCell id="IIIALtbJ6gJXUHirrjL4-17" value="0" style="rounded=0;whiteSpace=wrap;html=1;fontStyle=1;fontSize=20;strokeWidth=3;" parent="1" vertex="1">
          <mxGeometry x="160" y="1160" width="80" height="40" as="geometry" />
        </mxCell>
        <mxCell id="IIIALtbJ6gJXUHirrjL4-18" value="-4" style="rounded=0;whiteSpace=wrap;html=1;fontStyle=1;fontSize=20;strokeWidth=3;" parent="1" vertex="1">
          <mxGeometry x="160" y="1200" width="80" height="40" as="geometry" />
        </mxCell>
        <mxCell id="IIIALtbJ6gJXUHirrjL4-19" value="-8" style="rounded=0;whiteSpace=wrap;html=1;fontStyle=1;fontSize=20;strokeWidth=3;" parent="1" vertex="1">
          <mxGeometry x="160" y="1240" width="80" height="40" as="geometry" />
        </mxCell>
        <mxCell id="IIIALtbJ6gJXUHirrjL4-20" value="-12" style="rounded=0;whiteSpace=wrap;html=1;fontStyle=1;fontSize=20;strokeWidth=3;" parent="1" vertex="1">
          <mxGeometry x="160" y="1280" width="80" height="40" as="geometry" />
        </mxCell>
        <mxCell id="IIIALtbJ6gJXUHirrjL4-21" value="-16" style="rounded=0;whiteSpace=wrap;html=1;fontStyle=1;fontSize=20;strokeWidth=3;" parent="1" vertex="1">
          <mxGeometry x="160" y="1320" width="80" height="40" as="geometry" />
        </mxCell>
        <mxCell id="IIIALtbJ6gJXUHirrjL4-22" value="-20" style="rounded=0;whiteSpace=wrap;html=1;fontStyle=1;fontSize=20;strokeWidth=3;" parent="1" vertex="1">
          <mxGeometry x="160" y="1360" width="80" height="40" as="geometry" />
        </mxCell>
        <mxCell id="IIIALtbJ6gJXUHirrjL4-29" value="-4" style="rounded=0;whiteSpace=wrap;html=1;fontStyle=1;fontSize=20;strokeWidth=3;" parent="1" vertex="1">
          <mxGeometry x="240" y="1160" width="80" height="40" as="geometry" />
        </mxCell>
        <mxCell id="IIIALtbJ6gJXUHirrjL4-73" style="rounded=0;orthogonalLoop=1;jettySize=auto;html=1;exitX=0.5;exitY=0;exitDx=0;exitDy=0;fontSize=20;dashed=1;strokeWidth=3;fillColor=#f8cecc;strokeColor=#FF0000;entryX=0.5;entryY=1;entryDx=0;entryDy=0;" parent="1" source="IIIALtbJ6gJXUHirrjL4-30" target="IIIALtbJ6gJXUHirrjL4-70" edge="1">
          <mxGeometry relative="1" as="geometry">
            <mxPoint x="400" y="1000" as="targetPoint" />
          </mxGeometry>
        </mxCell>
        <mxCell id="IIIALtbJ6gJXUHirrjL4-31" value="" style="rounded=0;whiteSpace=wrap;html=1;fontStyle=1;fontSize=20;strokeWidth=3;" parent="1" vertex="1">
          <mxGeometry x="240" y="1240" width="80" height="40" as="geometry" />
        </mxCell>
        <mxCell id="IIIALtbJ6gJXUHirrjL4-32" value="" style="rounded=0;whiteSpace=wrap;html=1;fontStyle=1;fontSize=20;strokeWidth=3;" parent="1" vertex="1">
          <mxGeometry x="240" y="1280" width="80" height="40" as="geometry" />
        </mxCell>
        <mxCell id="IIIALtbJ6gJXUHirrjL4-33" value="" style="rounded=0;whiteSpace=wrap;html=1;fontStyle=1;fontSize=20;strokeWidth=3;" parent="1" vertex="1">
          <mxGeometry x="240" y="1320" width="80" height="40" as="geometry" />
        </mxCell>
        <mxCell id="IIIALtbJ6gJXUHirrjL4-34" value="" style="rounded=0;whiteSpace=wrap;html=1;fontStyle=1;fontSize=20;strokeWidth=3;" parent="1" vertex="1">
          <mxGeometry x="240" y="1360" width="80" height="40" as="geometry" />
        </mxCell>
        <mxCell id="IIIALtbJ6gJXUHirrjL4-35" value="-8" style="rounded=0;whiteSpace=wrap;html=1;fontStyle=1;fontSize=20;strokeWidth=3;" parent="1" vertex="1">
          <mxGeometry x="320" y="1160" width="80" height="40" as="geometry" />
        </mxCell>
        <mxCell id="IIIALtbJ6gJXUHirrjL4-36" value="" style="rounded=0;whiteSpace=wrap;html=1;fontStyle=1;fontSize=20;strokeWidth=3;" parent="1" vertex="1">
          <mxGeometry x="320" y="1200" width="80" height="40" as="geometry" />
        </mxCell>
        <mxCell id="IIIALtbJ6gJXUHirrjL4-37" value="" style="rounded=0;whiteSpace=wrap;html=1;fontStyle=1;fontSize=20;strokeWidth=3;" parent="1" vertex="1">
          <mxGeometry x="320" y="1240" width="80" height="40" as="geometry" />
        </mxCell>
        <mxCell id="IIIALtbJ6gJXUHirrjL4-38" value="" style="rounded=0;whiteSpace=wrap;html=1;fontStyle=1;fontSize=20;strokeWidth=3;" parent="1" vertex="1">
          <mxGeometry x="320" y="1280" width="80" height="40" as="geometry" />
        </mxCell>
        <mxCell id="IIIALtbJ6gJXUHirrjL4-39" value="" style="rounded=0;whiteSpace=wrap;html=1;fontStyle=1;fontSize=20;strokeWidth=3;" parent="1" vertex="1">
          <mxGeometry x="320" y="1320" width="80" height="40" as="geometry" />
        </mxCell>
        <mxCell id="IIIALtbJ6gJXUHirrjL4-40" value="" style="rounded=0;whiteSpace=wrap;html=1;fontStyle=1;fontSize=20;strokeWidth=3;" parent="1" vertex="1">
          <mxGeometry x="320" y="1360" width="80" height="40" as="geometry" />
        </mxCell>
        <mxCell id="IIIALtbJ6gJXUHirrjL4-41" value="-12" style="rounded=0;whiteSpace=wrap;html=1;fontStyle=1;fontSize=20;strokeWidth=3;" parent="1" vertex="1">
          <mxGeometry x="400" y="1160" width="80" height="40" as="geometry" />
        </mxCell>
        <mxCell id="IIIALtbJ6gJXUHirrjL4-42" value="" style="rounded=0;whiteSpace=wrap;html=1;fontStyle=1;fontSize=20;strokeWidth=3;" parent="1" vertex="1">
          <mxGeometry x="400" y="1200" width="80" height="40" as="geometry" />
        </mxCell>
        <mxCell id="IIIALtbJ6gJXUHirrjL4-43" value="" style="rounded=0;whiteSpace=wrap;html=1;fontStyle=1;fontSize=20;strokeWidth=3;" parent="1" vertex="1">
          <mxGeometry x="400" y="1240" width="80" height="40" as="geometry" />
        </mxCell>
        <mxCell id="IIIALtbJ6gJXUHirrjL4-44" value="" style="rounded=0;whiteSpace=wrap;html=1;fontStyle=1;fontSize=20;strokeWidth=3;" parent="1" vertex="1">
          <mxGeometry x="400" y="1280" width="80" height="40" as="geometry" />
        </mxCell>
        <mxCell id="IIIALtbJ6gJXUHirrjL4-45" value="" style="rounded=0;whiteSpace=wrap;html=1;fontStyle=1;fontSize=20;strokeWidth=3;" parent="1" vertex="1">
          <mxGeometry x="400" y="1320" width="80" height="40" as="geometry" />
        </mxCell>
        <mxCell id="IIIALtbJ6gJXUHirrjL4-46" value="" style="rounded=0;whiteSpace=wrap;html=1;fontStyle=1;fontSize=20;strokeWidth=3;" parent="1" vertex="1">
          <mxGeometry x="400" y="1360" width="80" height="40" as="geometry" />
        </mxCell>
        <mxCell id="IIIALtbJ6gJXUHirrjL4-47" value="-16" style="rounded=0;whiteSpace=wrap;html=1;fontStyle=1;fontSize=20;strokeWidth=3;" parent="1" vertex="1">
          <mxGeometry x="480" y="1160" width="80" height="40" as="geometry" />
        </mxCell>
        <mxCell id="IIIALtbJ6gJXUHirrjL4-48" value="" style="rounded=0;whiteSpace=wrap;html=1;fontStyle=1;fontSize=20;strokeWidth=3;" parent="1" vertex="1">
          <mxGeometry x="480" y="1200" width="80" height="40" as="geometry" />
        </mxCell>
        <mxCell id="IIIALtbJ6gJXUHirrjL4-49" value="" style="rounded=0;whiteSpace=wrap;html=1;fontStyle=1;fontSize=20;strokeWidth=3;" parent="1" vertex="1">
          <mxGeometry x="480" y="1240" width="80" height="40" as="geometry" />
        </mxCell>
        <mxCell id="IIIALtbJ6gJXUHirrjL4-50" value="" style="rounded=0;whiteSpace=wrap;html=1;fontStyle=1;fontSize=20;strokeWidth=3;" parent="1" vertex="1">
          <mxGeometry x="480" y="1280" width="80" height="40" as="geometry" />
        </mxCell>
        <mxCell id="IIIALtbJ6gJXUHirrjL4-51" value="" style="rounded=0;whiteSpace=wrap;html=1;fontStyle=1;fontSize=20;strokeWidth=3;" parent="1" vertex="1">
          <mxGeometry x="480" y="1320" width="80" height="40" as="geometry" />
        </mxCell>
        <mxCell id="IIIALtbJ6gJXUHirrjL4-52" value="" style="rounded=0;whiteSpace=wrap;html=1;fontStyle=1;fontSize=20;strokeWidth=3;" parent="1" vertex="1">
          <mxGeometry x="480" y="1360" width="80" height="40" as="geometry" />
        </mxCell>
        <mxCell id="IIIALtbJ6gJXUHirrjL4-53" value="-20" style="rounded=0;whiteSpace=wrap;html=1;fontStyle=1;fontSize=20;strokeWidth=3;" parent="1" vertex="1">
          <mxGeometry x="560" y="1160" width="80" height="40" as="geometry" />
        </mxCell>
        <mxCell id="IIIALtbJ6gJXUHirrjL4-54" value="" style="rounded=0;whiteSpace=wrap;html=1;fontStyle=1;fontSize=20;strokeWidth=3;" parent="1" vertex="1">
          <mxGeometry x="560" y="1200" width="80" height="40" as="geometry" />
        </mxCell>
        <mxCell id="IIIALtbJ6gJXUHirrjL4-55" value="" style="rounded=0;whiteSpace=wrap;html=1;fontStyle=1;fontSize=20;strokeWidth=3;" parent="1" vertex="1">
          <mxGeometry x="560" y="1240" width="80" height="40" as="geometry" />
        </mxCell>
        <mxCell id="IIIALtbJ6gJXUHirrjL4-56" value="" style="rounded=0;whiteSpace=wrap;html=1;fontStyle=1;fontSize=20;strokeWidth=3;" parent="1" vertex="1">
          <mxGeometry x="560" y="1280" width="80" height="40" as="geometry" />
        </mxCell>
        <mxCell id="IIIALtbJ6gJXUHirrjL4-57" value="" style="rounded=0;whiteSpace=wrap;html=1;fontStyle=1;fontSize=20;strokeWidth=3;" parent="1" vertex="1">
          <mxGeometry x="560" y="1320" width="80" height="40" as="geometry" />
        </mxCell>
        <mxCell id="IIIALtbJ6gJXUHirrjL4-58" value="" style="rounded=0;whiteSpace=wrap;html=1;fontStyle=1;fontSize=20;strokeWidth=3;" parent="1" vertex="1">
          <mxGeometry x="560" y="1360" width="80" height="40" as="geometry" />
        </mxCell>
        <mxCell id="IIIALtbJ6gJXUHirrjL4-59" value="-24" style="rounded=0;whiteSpace=wrap;html=1;fontStyle=1;fontSize=20;strokeWidth=3;" parent="1" vertex="1">
          <mxGeometry x="640" y="1160" width="80" height="40" as="geometry" />
        </mxCell>
        <mxCell id="IIIALtbJ6gJXUHirrjL4-60" value="" style="rounded=0;whiteSpace=wrap;html=1;fontStyle=1;fontSize=20;strokeWidth=3;" parent="1" vertex="1">
          <mxGeometry x="640" y="1200" width="80" height="40" as="geometry" />
        </mxCell>
        <mxCell id="IIIALtbJ6gJXUHirrjL4-61" value="" style="rounded=0;whiteSpace=wrap;html=1;fontStyle=1;fontSize=20;strokeWidth=3;" parent="1" vertex="1">
          <mxGeometry x="640" y="1240" width="80" height="40" as="geometry" />
        </mxCell>
        <mxCell id="IIIALtbJ6gJXUHirrjL4-62" value="" style="rounded=0;whiteSpace=wrap;html=1;fontStyle=1;fontSize=20;strokeWidth=3;" parent="1" vertex="1">
          <mxGeometry x="640" y="1280" width="80" height="40" as="geometry" />
        </mxCell>
        <mxCell id="IIIALtbJ6gJXUHirrjL4-63" value="" style="rounded=0;whiteSpace=wrap;html=1;fontStyle=1;fontSize=20;strokeWidth=3;" parent="1" vertex="1">
          <mxGeometry x="640" y="1320" width="80" height="40" as="geometry" />
        </mxCell>
        <mxCell id="IIIALtbJ6gJXUHirrjL4-64" value="" style="rounded=0;whiteSpace=wrap;html=1;fontStyle=1;fontSize=20;strokeWidth=3;" parent="1" vertex="1">
          <mxGeometry x="640" y="1360" width="80" height="40" as="geometry" />
        </mxCell>
        <mxCell id="IIIALtbJ6gJXUHirrjL4-65" value="" style="endArrow=classic;html=1;rounded=0;fontSize=20;" parent="1" edge="1">
          <mxGeometry width="50" height="50" relative="1" as="geometry">
            <mxPoint x="40" y="1160" as="sourcePoint" />
            <mxPoint x="40" y="1240" as="targetPoint" />
          </mxGeometry>
        </mxCell>
        <mxCell id="IIIALtbJ6gJXUHirrjL4-66" value="`s_1`" style="text;html=1;strokeColor=none;fillColor=none;align=center;verticalAlign=middle;whiteSpace=wrap;rounded=0;strokeWidth=3;fontSize=20;" parent="1" vertex="1">
          <mxGeometry x="10" y="1130" width="60" height="30" as="geometry" />
        </mxCell>
        <mxCell id="IIIALtbJ6gJXUHirrjL4-67" value="" style="endArrow=classic;html=1;rounded=0;fontSize=20;" parent="1" edge="1">
          <mxGeometry width="50" height="50" relative="1" as="geometry">
            <mxPoint x="119.63" y="1084.6299999999999" as="sourcePoint" />
            <mxPoint x="200" y="1084.63" as="targetPoint" />
          </mxGeometry>
        </mxCell>
        <mxCell id="IIIALtbJ6gJXUHirrjL4-68" value="`s_2`" style="text;html=1;strokeColor=none;fillColor=none;align=center;verticalAlign=middle;whiteSpace=wrap;rounded=0;strokeWidth=3;fontSize=20;" parent="1" vertex="1">
          <mxGeometry x="60" y="1070" width="60" height="30" as="geometry" />
        </mxCell>
        <mxCell id="IIIALtbJ6gJXUHirrjL4-70" value="max(0-3, -4-3, -4-3)" style="text;html=1;strokeColor=none;fillColor=none;align=left;verticalAlign=middle;whiteSpace=wrap;rounded=0;strokeWidth=3;fontSize=20;fontStyle=1" parent="1" vertex="1">
          <mxGeometry x="250" y="1050" width="200" height="30" as="geometry" />
        </mxCell>
        <mxCell id="IIIALtbJ6gJXUHirrjL4-72" value="match : +5, mismatch : -3, gap : -4" style="text;html=1;strokeColor=none;fillColor=none;align=right;verticalAlign=middle;whiteSpace=wrap;rounded=0;strokeWidth=3;fontSize=20;fontStyle=1" parent="1" vertex="1">
          <mxGeometry x="360" y="1080" width="360" height="30" as="geometry" />
        </mxCell>
        <mxCell id="IIIALtbJ6gJXUHirrjL4-30" value="-3" style="rounded=0;whiteSpace=wrap;html=1;fontStyle=1;fontSize=20;strokeWidth=3;strokeColor=#FF0000;dashed=1;" parent="1" vertex="1">
          <mxGeometry x="240" y="1200" width="80" height="40" as="geometry" />
        </mxCell>
        <mxCell id="HBFghvlIU_bPEw0o-52B-1" value="-" style="rounded=0;whiteSpace=wrap;html=1;fontStyle=1;fontSize=20;strokeWidth=3;" parent="1" vertex="1">
          <mxGeometry x="110" y="1550" width="80" height="40" as="geometry" />
        </mxCell>
        <mxCell id="HBFghvlIU_bPEw0o-52B-2" value="-" style="rounded=0;whiteSpace=wrap;html=1;fontStyle=1;fontSize=20;strokeWidth=3;" parent="1" vertex="1">
          <mxGeometry x="190" y="1550" width="80" height="40" as="geometry" />
        </mxCell>
        <mxCell id="HBFghvlIU_bPEw0o-52B-3" value="A" style="rounded=0;whiteSpace=wrap;html=1;fontStyle=1;fontSize=20;strokeWidth=3;" parent="1" vertex="1">
          <mxGeometry x="270" y="1550" width="80" height="40" as="geometry" />
        </mxCell>
        <mxCell id="HBFghvlIU_bPEw0o-52B-4" value="T" style="rounded=0;whiteSpace=wrap;html=1;fontStyle=1;fontSize=20;strokeWidth=3;" parent="1" vertex="1">
          <mxGeometry x="350" y="1550" width="80" height="40" as="geometry" />
        </mxCell>
        <mxCell id="HBFghvlIU_bPEw0o-52B-5" value="C" style="rounded=0;whiteSpace=wrap;html=1;fontStyle=1;fontSize=20;strokeWidth=3;" parent="1" vertex="1">
          <mxGeometry x="430" y="1550" width="80" height="40" as="geometry" />
        </mxCell>
        <mxCell id="HBFghvlIU_bPEw0o-52B-6" value="G" style="rounded=0;whiteSpace=wrap;html=1;fontStyle=1;fontSize=20;strokeWidth=3;" parent="1" vertex="1">
          <mxGeometry x="510" y="1550" width="80" height="40" as="geometry" />
        </mxCell>
        <mxCell id="HBFghvlIU_bPEw0o-52B-7" value="A" style="rounded=0;whiteSpace=wrap;html=1;fontStyle=1;fontSize=20;strokeWidth=3;" parent="1" vertex="1">
          <mxGeometry x="590" y="1550" width="80" height="40" as="geometry" />
        </mxCell>
        <mxCell id="HBFghvlIU_bPEw0o-52B-8" value="C" style="rounded=0;whiteSpace=wrap;html=1;fontStyle=1;fontSize=20;strokeWidth=3;" parent="1" vertex="1">
          <mxGeometry x="670" y="1550" width="80" height="40" as="geometry" />
        </mxCell>
        <mxCell id="HBFghvlIU_bPEw0o-52B-9" value="-" style="rounded=0;whiteSpace=wrap;html=1;fontStyle=1;fontSize=20;strokeWidth=3;" parent="1" vertex="1">
          <mxGeometry x="110" y="1590" width="80" height="40" as="geometry" />
        </mxCell>
        <mxCell id="HBFghvlIU_bPEw0o-52B-10" value="C" style="rounded=0;whiteSpace=wrap;html=1;fontStyle=1;fontSize=20;strokeWidth=3;" parent="1" vertex="1">
          <mxGeometry x="110" y="1630" width="80" height="40" as="geometry" />
        </mxCell>
        <mxCell id="HBFghvlIU_bPEw0o-52B-11" value="A" style="rounded=0;whiteSpace=wrap;html=1;fontStyle=1;fontSize=20;strokeWidth=3;" parent="1" vertex="1">
          <mxGeometry x="110" y="1670" width="80" height="40" as="geometry" />
        </mxCell>
        <mxCell id="HBFghvlIU_bPEw0o-52B-12" value="T" style="rounded=0;whiteSpace=wrap;html=1;fontStyle=1;fontSize=20;strokeWidth=3;" parent="1" vertex="1">
          <mxGeometry x="110" y="1710" width="80" height="40" as="geometry" />
        </mxCell>
        <mxCell id="HBFghvlIU_bPEw0o-52B-13" value="A" style="rounded=0;whiteSpace=wrap;html=1;fontStyle=1;fontSize=20;strokeWidth=3;" parent="1" vertex="1">
          <mxGeometry x="110" y="1750" width="80" height="40" as="geometry" />
        </mxCell>
        <mxCell id="HBFghvlIU_bPEw0o-52B-14" value="C" style="rounded=0;whiteSpace=wrap;html=1;fontStyle=1;fontSize=20;strokeWidth=3;" parent="1" vertex="1">
          <mxGeometry x="110" y="1790" width="80" height="40" as="geometry" />
        </mxCell>
        <mxCell id="HBFghvlIU_bPEw0o-52B-17" value="-8" style="rounded=0;whiteSpace=wrap;html=1;fontStyle=1;fontSize=20;strokeWidth=3;" parent="1" vertex="1">
          <mxGeometry x="190" y="1670" width="80" height="40" as="geometry" />
        </mxCell>
        <mxCell id="HBFghvlIU_bPEw0o-52B-18" value="-12" style="rounded=0;whiteSpace=wrap;html=1;fontStyle=1;fontSize=20;strokeWidth=3;" parent="1" vertex="1">
          <mxGeometry x="190" y="1710" width="80" height="40" as="geometry" />
        </mxCell>
        <mxCell id="HBFghvlIU_bPEw0o-52B-19" value="-16" style="rounded=0;whiteSpace=wrap;html=1;fontStyle=1;fontSize=20;strokeWidth=3;" parent="1" vertex="1">
          <mxGeometry x="190" y="1750" width="80" height="40" as="geometry" />
        </mxCell>
        <mxCell id="HBFghvlIU_bPEw0o-52B-20" value="-20" style="rounded=0;whiteSpace=wrap;html=1;fontStyle=1;fontSize=20;strokeWidth=3;" parent="1" vertex="1">
          <mxGeometry x="190" y="1790" width="80" height="40" as="geometry" />
        </mxCell>
        <mxCell id="HBFghvlIU_bPEw0o-52B-21" value="-4" style="rounded=0;whiteSpace=wrap;html=1;fontStyle=1;fontSize=20;strokeWidth=3;" parent="1" vertex="1">
          <mxGeometry x="270" y="1590" width="80" height="40" as="geometry" />
        </mxCell>
        <mxCell id="HBFghvlIU_bPEw0o-52B-24" value="-3" style="rounded=0;whiteSpace=wrap;html=1;fontStyle=1;fontSize=20;strokeWidth=3;" parent="1" vertex="1">
          <mxGeometry x="270" y="1710" width="80" height="40" as="geometry" />
        </mxCell>
        <mxCell id="HBFghvlIU_bPEw0o-52B-25" value="-7" style="rounded=0;whiteSpace=wrap;html=1;fontStyle=1;fontSize=20;strokeWidth=3;" parent="1" vertex="1">
          <mxGeometry x="270" y="1750" width="80" height="40" as="geometry" />
        </mxCell>
        <mxCell id="HBFghvlIU_bPEw0o-52B-26" value="-11" style="rounded=0;whiteSpace=wrap;html=1;fontStyle=1;fontSize=20;strokeWidth=3;" parent="1" vertex="1">
          <mxGeometry x="270" y="1790" width="80" height="40" as="geometry" />
        </mxCell>
        <mxCell id="HBFghvlIU_bPEw0o-52B-27" value="-8" style="rounded=0;whiteSpace=wrap;html=1;fontStyle=1;fontSize=20;strokeWidth=3;" parent="1" vertex="1">
          <mxGeometry x="350" y="1590" width="80" height="40" as="geometry" />
        </mxCell>
        <mxCell id="HBFghvlIU_bPEw0o-52B-29" value="-3" style="rounded=0;whiteSpace=wrap;html=1;fontStyle=1;fontSize=20;strokeWidth=3;" parent="1" vertex="1">
          <mxGeometry x="350" y="1670" width="80" height="40" as="geometry" />
        </mxCell>
        <mxCell id="HBFghvlIU_bPEw0o-52B-31" value="2" style="rounded=0;whiteSpace=wrap;html=1;fontStyle=1;fontSize=20;strokeWidth=3;" parent="1" vertex="1">
          <mxGeometry x="350" y="1750" width="80" height="40" as="geometry" />
        </mxCell>
        <mxCell id="HBFghvlIU_bPEw0o-52B-32" value="-2" style="rounded=0;whiteSpace=wrap;html=1;fontStyle=1;fontSize=20;strokeWidth=3;" parent="1" vertex="1">
          <mxGeometry x="350" y="1790" width="80" height="40" as="geometry" />
        </mxCell>
        <mxCell id="HBFghvlIU_bPEw0o-52B-33" value="-12" style="rounded=0;whiteSpace=wrap;html=1;fontStyle=1;fontSize=20;strokeWidth=3;" parent="1" vertex="1">
          <mxGeometry x="430" y="1590" width="80" height="40" as="geometry" />
        </mxCell>
        <mxCell id="HBFghvlIU_bPEw0o-52B-34" value="-3" style="rounded=0;whiteSpace=wrap;html=1;fontStyle=1;fontSize=20;strokeWidth=3;" parent="1" vertex="1">
          <mxGeometry x="430" y="1630" width="80" height="40" as="geometry" />
        </mxCell>
        <mxCell id="HBFghvlIU_bPEw0o-52B-35" value="-7" style="rounded=0;whiteSpace=wrap;html=1;fontStyle=1;fontSize=20;strokeWidth=3;" parent="1" vertex="1">
          <mxGeometry x="430" y="1670" width="80" height="40" as="geometry" />
        </mxCell>
        <mxCell id="HBFghvlIU_bPEw0o-52B-37" value="3" style="rounded=0;whiteSpace=wrap;html=1;fontStyle=1;fontSize=20;strokeWidth=3;" parent="1" vertex="1">
          <mxGeometry x="430" y="1750" width="80" height="40" as="geometry" />
        </mxCell>
        <mxCell id="HBFghvlIU_bPEw0o-52B-38" value="7" style="rounded=0;whiteSpace=wrap;html=1;fontStyle=1;fontSize=20;strokeWidth=3;" parent="1" vertex="1">
          <mxGeometry x="430" y="1790" width="80" height="40" as="geometry" />
        </mxCell>
        <mxCell id="HBFghvlIU_bPEw0o-52B-39" value="-16" style="rounded=0;whiteSpace=wrap;html=1;fontStyle=1;fontSize=20;strokeWidth=3;" parent="1" vertex="1">
          <mxGeometry x="510" y="1590" width="80" height="40" as="geometry" />
        </mxCell>
        <mxCell id="HBFghvlIU_bPEw0o-52B-40" value="-7" style="rounded=0;whiteSpace=wrap;html=1;fontStyle=1;fontSize=20;strokeWidth=3;" parent="1" vertex="1">
          <mxGeometry x="510" y="1630" width="80" height="40" as="geometry" />
        </mxCell>
        <mxCell id="HBFghvlIU_bPEw0o-52B-41" value="-6" style="rounded=0;whiteSpace=wrap;html=1;fontStyle=1;fontSize=20;strokeWidth=3;" parent="1" vertex="1">
          <mxGeometry x="510" y="1670" width="80" height="40" as="geometry" />
        </mxCell>
        <mxCell id="HBFghvlIU_bPEw0o-52B-43" value="-1" style="rounded=0;whiteSpace=wrap;html=1;fontStyle=1;fontSize=20;strokeWidth=3;" parent="1" vertex="1">
          <mxGeometry x="510" y="1750" width="80" height="40" as="geometry" />
        </mxCell>
        <mxCell id="HBFghvlIU_bPEw0o-52B-44" value="3" style="rounded=0;whiteSpace=wrap;html=1;fontStyle=1;fontSize=20;strokeWidth=3;" parent="1" vertex="1">
          <mxGeometry x="510" y="1790" width="80" height="40" as="geometry" />
        </mxCell>
        <mxCell id="HBFghvlIU_bPEw0o-52B-45" value="-20" style="rounded=0;whiteSpace=wrap;html=1;fontStyle=1;fontSize=20;strokeWidth=3;" parent="1" vertex="1">
          <mxGeometry x="590" y="1590" width="80" height="40" as="geometry" />
        </mxCell>
        <mxCell id="HBFghvlIU_bPEw0o-52B-46" value="-11" style="rounded=0;whiteSpace=wrap;html=1;fontStyle=1;fontSize=20;strokeWidth=3;" parent="1" vertex="1">
          <mxGeometry x="590" y="1630" width="80" height="40" as="geometry" />
        </mxCell>
        <mxCell id="HBFghvlIU_bPEw0o-52B-47" value="-2" style="rounded=0;whiteSpace=wrap;html=1;fontStyle=1;fontSize=20;strokeWidth=3;" parent="1" vertex="1">
          <mxGeometry x="590" y="1670" width="80" height="40" as="geometry" />
        </mxCell>
        <mxCell id="HBFghvlIU_bPEw0o-52B-48" value="-6" style="rounded=0;whiteSpace=wrap;html=1;fontStyle=1;fontSize=20;strokeWidth=3;" parent="1" vertex="1">
          <mxGeometry x="590" y="1710" width="80" height="40" as="geometry" />
        </mxCell>
        <mxCell id="HBFghvlIU_bPEw0o-52B-50" value="-1" style="rounded=0;whiteSpace=wrap;html=1;fontStyle=1;fontSize=20;strokeWidth=3;" parent="1" vertex="1">
          <mxGeometry x="590" y="1790" width="80" height="40" as="geometry" />
        </mxCell>
        <mxCell id="HBFghvlIU_bPEw0o-52B-51" value="-24" style="rounded=0;whiteSpace=wrap;html=1;fontStyle=1;fontSize=20;strokeWidth=3;" parent="1" vertex="1">
          <mxGeometry x="670" y="1590" width="80" height="40" as="geometry" />
        </mxCell>
        <mxCell id="HBFghvlIU_bPEw0o-52B-52" value="-15" style="rounded=0;whiteSpace=wrap;html=1;fontStyle=1;fontSize=20;strokeWidth=3;" parent="1" vertex="1">
          <mxGeometry x="670" y="1630" width="80" height="40" as="geometry" />
        </mxCell>
        <mxCell id="HBFghvlIU_bPEw0o-52B-53" value="-6" style="rounded=0;whiteSpace=wrap;html=1;fontStyle=1;fontSize=20;strokeWidth=3;" parent="1" vertex="1">
          <mxGeometry x="670" y="1670" width="80" height="40" as="geometry" />
        </mxCell>
        <mxCell id="HBFghvlIU_bPEw0o-52B-54" value="-5" style="rounded=0;whiteSpace=wrap;html=1;fontStyle=1;fontSize=20;strokeWidth=3;" parent="1" vertex="1">
          <mxGeometry x="670" y="1710" width="80" height="40" as="geometry" />
        </mxCell>
        <mxCell id="HBFghvlIU_bPEw0o-52B-55" value="-1" style="rounded=0;whiteSpace=wrap;html=1;fontStyle=1;fontSize=20;strokeWidth=3;" parent="1" vertex="1">
          <mxGeometry x="670" y="1750" width="80" height="40" as="geometry" />
        </mxCell>
        <mxCell id="HBFghvlIU_bPEw0o-52B-56" value="8" style="rounded=0;whiteSpace=wrap;html=1;fontStyle=1;fontSize=20;strokeWidth=3;fillColor=#dae8fc;strokeColor=#6c8ebf;" parent="1" vertex="1">
          <mxGeometry x="670" y="1790" width="80" height="40" as="geometry" />
        </mxCell>
        <mxCell id="HBFghvlIU_bPEw0o-52B-57" value="" style="endArrow=classic;html=1;rounded=0;fontSize=20;" parent="1" edge="1">
          <mxGeometry width="50" height="50" relative="1" as="geometry">
            <mxPoint x="70" y="1590" as="sourcePoint" />
            <mxPoint x="70" y="1670" as="targetPoint" />
          </mxGeometry>
        </mxCell>
        <mxCell id="HBFghvlIU_bPEw0o-52B-58" value="`s_1`" style="text;html=1;strokeColor=none;fillColor=none;align=center;verticalAlign=middle;whiteSpace=wrap;rounded=0;strokeWidth=3;fontSize=20;" parent="1" vertex="1">
          <mxGeometry x="40" y="1560" width="60" height="30" as="geometry" />
        </mxCell>
        <mxCell id="HBFghvlIU_bPEw0o-52B-59" value="" style="endArrow=classic;html=1;rounded=0;fontSize=20;" parent="1" edge="1">
          <mxGeometry width="50" height="50" relative="1" as="geometry">
            <mxPoint x="149.6300000000001" y="1514.6299999999999" as="sourcePoint" />
            <mxPoint x="230" y="1514.63" as="targetPoint" />
          </mxGeometry>
        </mxCell>
        <mxCell id="HBFghvlIU_bPEw0o-52B-60" value="`s_2`" style="text;html=1;strokeColor=none;fillColor=none;align=center;verticalAlign=middle;whiteSpace=wrap;rounded=0;strokeWidth=3;fontSize=20;" parent="1" vertex="1">
          <mxGeometry x="90" y="1500" width="60" height="30" as="geometry" />
        </mxCell>
        <mxCell id="HBFghvlIU_bPEw0o-52B-66" value="max(-3-4, -4-3, -8-4)" style="text;html=1;strokeColor=none;fillColor=none;align=left;verticalAlign=middle;whiteSpace=wrap;rounded=0;strokeWidth=3;fontSize=20;fontStyle=1" parent="1" vertex="1">
          <mxGeometry x="540" y="1500" width="200" height="30" as="geometry" />
        </mxCell>
        <mxCell id="HBFghvlIU_bPEw0o-52B-15" value="0" style="rounded=0;whiteSpace=wrap;html=1;fontStyle=1;fontSize=20;strokeWidth=3;fillColor=#dae8fc;strokeColor=#6c8ebf;" parent="1" vertex="1">
          <mxGeometry x="190" y="1590" width="80" height="40" as="geometry" />
        </mxCell>
        <mxCell id="HBFghvlIU_bPEw0o-52B-16" value="-4" style="rounded=0;whiteSpace=wrap;html=1;fontStyle=1;fontSize=20;strokeWidth=3;fillColor=#dae8fc;strokeColor=#6c8ebf;" parent="1" vertex="1">
          <mxGeometry x="190" y="1630" width="80" height="40" as="geometry" />
        </mxCell>
        <mxCell id="HBFghvlIU_bPEw0o-52B-30" value="6" style="rounded=0;whiteSpace=wrap;html=1;fontStyle=1;fontSize=20;strokeWidth=3;fillColor=#dae8fc;strokeColor=#6c8ebf;" parent="1" vertex="1">
          <mxGeometry x="350" y="1710" width="80" height="40" as="geometry" />
        </mxCell>
        <mxCell id="HBFghvlIU_bPEw0o-52B-36" value="2" style="rounded=0;whiteSpace=wrap;html=1;fontStyle=1;fontSize=20;strokeWidth=3;fillColor=#dae8fc;strokeColor=#6c8ebf;" parent="1" vertex="1">
          <mxGeometry x="430" y="1710" width="80" height="40" as="geometry" />
        </mxCell>
        <mxCell id="HBFghvlIU_bPEw0o-52B-42" value="-2" style="rounded=0;whiteSpace=wrap;html=1;fontStyle=1;fontSize=20;strokeWidth=3;fillColor=#dae8fc;strokeColor=#6c8ebf;" parent="1" vertex="1">
          <mxGeometry x="510" y="1710" width="80" height="40" as="geometry" />
        </mxCell>
        <mxCell id="HBFghvlIU_bPEw0o-52B-49" value="3" style="rounded=0;whiteSpace=wrap;html=1;fontStyle=1;fontSize=20;strokeWidth=3;fillColor=#dae8fc;strokeColor=#6c8ebf;" parent="1" vertex="1">
          <mxGeometry x="590" y="1750" width="80" height="40" as="geometry" />
        </mxCell>
        <mxCell id="HBFghvlIU_bPEw0o-52B-28" value="-7" style="rounded=0;whiteSpace=wrap;html=1;fontStyle=1;fontSize=20;strokeWidth=3;dashed=1;strokeColor=#FF0000;" parent="1" vertex="1">
          <mxGeometry x="350" y="1630" width="80" height="40" as="geometry" />
        </mxCell>
        <mxCell id="HBFghvlIU_bPEw0o-52B-73" value="" style="endArrow=classic;html=1;rounded=0;strokeWidth=3;strokeColor=#FF0000;" parent="1" edge="1">
          <mxGeometry width="50" height="50" relative="1" as="geometry">
            <mxPoint x="219.66" y="1610" as="sourcePoint" />
            <mxPoint x="219.66" y="1650" as="targetPoint" />
          </mxGeometry>
        </mxCell>
        <mxCell id="HBFghvlIU_bPEw0o-52B-23" value="1" style="rounded=0;whiteSpace=wrap;html=1;fontStyle=1;fontSize=20;strokeWidth=3;fillColor=#dae8fc;strokeColor=#6c8ebf;" parent="1" vertex="1">
          <mxGeometry x="270" y="1670" width="80" height="40" as="geometry" />
        </mxCell>
        <mxCell id="HBFghvlIU_bPEw0o-52B-72" value="" style="endArrow=classic;html=1;rounded=0;strokeWidth=3;strokeColor=#FF0000;" parent="1" edge="1">
          <mxGeometry width="50" height="50" relative="1" as="geometry">
            <mxPoint x="240" y="1660" as="sourcePoint" />
            <mxPoint x="300" y="1690" as="targetPoint" />
          </mxGeometry>
        </mxCell>
        <mxCell id="HBFghvlIU_bPEw0o-52B-64" value="" style="endArrow=classic;html=1;rounded=0;strokeWidth=3;strokeColor=#FF0000;" parent="1" edge="1">
          <mxGeometry width="50" height="50" relative="1" as="geometry">
            <mxPoint x="320" y="1700" as="sourcePoint" />
            <mxPoint x="380" y="1730" as="targetPoint" />
          </mxGeometry>
        </mxCell>
        <mxCell id="HBFghvlIU_bPEw0o-52B-71" value="" style="endArrow=classic;html=1;rounded=0;strokeWidth=3;strokeColor=#FF0000;" parent="1" edge="1">
          <mxGeometry width="50" height="50" relative="1" as="geometry">
            <mxPoint x="400" y="1740" as="sourcePoint" />
            <mxPoint x="460" y="1740" as="targetPoint" />
          </mxGeometry>
        </mxCell>
        <mxCell id="HBFghvlIU_bPEw0o-52B-70" value="" style="endArrow=classic;html=1;rounded=0;strokeWidth=3;strokeColor=#FF0000;" parent="1" edge="1">
          <mxGeometry width="50" height="50" relative="1" as="geometry">
            <mxPoint x="480" y="1740" as="sourcePoint" />
            <mxPoint x="540" y="1740" as="targetPoint" />
          </mxGeometry>
        </mxCell>
        <mxCell id="HBFghvlIU_bPEw0o-52B-69" value="" style="endArrow=classic;html=1;rounded=0;strokeWidth=3;strokeColor=#FF0000;" parent="1" edge="1">
          <mxGeometry width="50" height="50" relative="1" as="geometry">
            <mxPoint x="560" y="1740" as="sourcePoint" />
            <mxPoint x="620" y="1770" as="targetPoint" />
          </mxGeometry>
        </mxCell>
        <mxCell id="HBFghvlIU_bPEw0o-52B-68" value="" style="endArrow=classic;html=1;rounded=0;strokeWidth=3;strokeColor=#FF0000;" parent="1" edge="1">
          <mxGeometry width="50" height="50" relative="1" as="geometry">
            <mxPoint x="640" y="1780" as="sourcePoint" />
            <mxPoint x="700" y="1810" as="targetPoint" />
          </mxGeometry>
        </mxCell>
        <mxCell id="HBFghvlIU_bPEw0o-52B-63" value="-3" style="rounded=0;whiteSpace=wrap;html=1;fontStyle=1;fontSize=20;strokeWidth=3;strokeColor=#FF0000;dashed=1;" parent="1" vertex="1">
          <mxGeometry x="270" y="1630" width="80" height="40" as="geometry" />
        </mxCell>
        <mxCell id="HBFghvlIU_bPEw0o-52B-75" value="T" style="rounded=0;whiteSpace=wrap;html=1;fontStyle=1;fontSize=20;strokeWidth=3;" parent="1" vertex="1">
          <mxGeometry x="350" y="1550" width="80" height="40" as="geometry" />
        </mxCell>
        <mxCell id="HBFghvlIU_bPEw0o-52B-76" value="C" style="rounded=0;whiteSpace=wrap;html=1;fontStyle=1;fontSize=20;strokeWidth=3;" parent="1" vertex="1">
          <mxGeometry x="430" y="1550" width="80" height="40" as="geometry" />
        </mxCell>
        <mxCell id="HBFghvlIU_bPEw0o-52B-77" value="G" style="rounded=0;whiteSpace=wrap;html=1;fontStyle=1;fontSize=20;strokeWidth=3;" parent="1" vertex="1">
          <mxGeometry x="510" y="1550" width="80" height="40" as="geometry" />
        </mxCell>
        <mxCell id="HBFghvlIU_bPEw0o-52B-78" value="-4" style="rounded=0;whiteSpace=wrap;html=1;fontStyle=1;fontSize=20;strokeWidth=3;" parent="1" vertex="1">
          <mxGeometry x="270" y="1550" width="80" height="40" as="geometry" />
        </mxCell>
        <mxCell id="HBFghvlIU_bPEw0o-52B-79" style="rounded=0;orthogonalLoop=1;jettySize=auto;html=1;fontSize=20;dashed=1;strokeWidth=3;fillColor=#f8cecc;strokeColor=#FF0000;entryX=0.5;entryY=1;entryDx=0;entryDy=0;" parent="1" target="HBFghvlIU_bPEw0o-52B-83" edge="1">
          <mxGeometry relative="1" as="geometry">
            <mxPoint x="430" y="1430" as="targetPoint" />
            <mxPoint x="310" y="1640" as="sourcePoint" />
          </mxGeometry>
        </mxCell>
        <mxCell id="HBFghvlIU_bPEw0o-52B-81" value="-12" style="rounded=0;whiteSpace=wrap;html=1;fontStyle=1;fontSize=20;strokeWidth=3;" parent="1" vertex="1">
          <mxGeometry x="430" y="1590" width="80" height="40" as="geometry" />
        </mxCell>
        <mxCell id="HBFghvlIU_bPEw0o-52B-82" value="-16" style="rounded=0;whiteSpace=wrap;html=1;fontStyle=1;fontSize=20;strokeWidth=3;" parent="1" vertex="1">
          <mxGeometry x="510" y="1590" width="80" height="40" as="geometry" />
        </mxCell>
        <mxCell id="HBFghvlIU_bPEw0o-52B-83" value="max(0-3, -4-3, -4-3)" style="text;html=1;strokeColor=none;fillColor=none;align=left;verticalAlign=middle;whiteSpace=wrap;rounded=0;strokeWidth=3;fontSize=20;fontStyle=1" parent="1" vertex="1">
          <mxGeometry x="310" y="1500" width="200" height="30" as="geometry" />
        </mxCell>
        <mxCell id="HBFghvlIU_bPEw0o-52B-84" style="rounded=0;orthogonalLoop=1;jettySize=auto;html=1;fontSize=20;dashed=1;strokeWidth=3;fillColor=#f8cecc;strokeColor=#FF0000;entryX=0;entryY=0.5;entryDx=0;entryDy=0;" parent="1" target="HBFghvlIU_bPEw0o-52B-66" edge="1">
          <mxGeometry relative="1" as="geometry">
            <mxPoint x="540" y="1500" as="targetPoint" />
            <mxPoint x="390" y="1640" as="sourcePoint" />
          </mxGeometry>
        </mxCell>
      </root>
    </mxGraphModel>
  </diagram>
</mxfile>
